<svg width="17" height="17" viewBox="0 0 17 17" fill="none" xmlns="http://www.w3.org/2000/svg">
<path d="M10.2918 6.70786L6.70762 10.292C6.2472 9.83161 5.96387 9.20119 5.96387 8.49994C5.96387 7.09744 7.0972 5.96411 8.4997 5.96411C9.20095 5.96411 9.83137 6.24744 10.2918 6.70786Z" stroke="#BAB8CF" stroke-width="1.5" stroke-linecap="round" stroke-linejoin="round"/>
<path d="M12.6229 4.08709C11.3833 3.15209 9.96663 2.64209 8.50038 2.64209C5.99996 2.64209 3.66954 4.11542 2.04746 6.66542C1.40996 7.66417 1.40996 9.34292 2.04746 10.3417C2.60704 11.22 3.25871 11.9779 3.96704 12.5871" stroke="#BAB8CF" stroke-width="1.5" stroke-linecap="round" stroke-linejoin="round"/>
<path d="M5.96387 13.8337C6.77137 14.1737 7.62845 14.3579 8.4997 14.3579C11.0001 14.3579 13.3305 12.8846 14.9526 10.3346C15.5901 9.33582 15.5901 7.65707 14.9526 6.65832C14.7189 6.28998 14.4639 5.9429 14.2018 5.61707" stroke="#BAB8CF" stroke-width="1.5" stroke-linecap="round" stroke-linejoin="round"/>
<path d="M10.9858 8.99585C10.8016 9.9946 9.98703 10.8092 8.98828 10.9934" stroke="#BAB8CF" stroke-width="1.5" stroke-linecap="round" stroke-linejoin="round"/>
<path d="M6.70824 10.2921L1.41699 15.5834" stroke="#BAB8CF" stroke-width="1.5" stroke-linecap="round" stroke-linejoin="round"/>
<path d="M15.5832 1.41663L10.292 6.70788" stroke="#BAB8CF" stroke-width="1.5" stroke-linecap="round" stroke-linejoin="round"/>
</svg>
