<svg width="159" height="44" viewBox="0 0 159 44" fill="none" xmlns="http://www.w3.org/2000/svg">
<path d="M115.91 22.2132C115.91 22.9901 115.302 23.6214 114.546 23.6214C114.183 23.6214 113.844 23.4757 113.592 23.2086L111.772 21.2785L110.103 23.1358C109.547 23.7549 108.616 23.7852 108.019 23.2086L106.989 22.2132C106.392 21.6366 106.363 20.6655 106.919 20.0464L108.663 18.1103L106.919 16.2834C106.527 15.8767 106.41 15.2637 106.632 14.7296C106.849 14.2076 107.364 13.8798 107.908 13.8798H114.552C115.302 13.8798 115.91 14.5111 115.91 15.288V22.2132ZM121.764 18.7536C121.764 16.4958 121.313 14.4625 120.418 12.6538C119.522 10.8451 118.269 9.43699 116.671 8.42945C115.067 7.42192 113.259 6.91815 111.233 6.91815C109.208 6.91815 107.393 7.42799 105.795 8.45373C104.191 9.47947 102.938 10.8876 102.031 12.6781C101.124 14.4686 100.667 16.4958 100.667 18.7536C100.667 21.0115 101.124 23.0387 102.031 24.8292C102.938 26.6258 104.197 28.0339 105.795 29.0535C107.393 30.0732 109.208 30.5891 111.233 30.5891C113.259 30.5891 115.067 30.0854 116.671 29.0778C118.269 28.0703 119.522 26.6622 120.418 24.8535C121.319 23.0448 121.764 21.0115 121.764 18.7536Z" fill="#2E00FF"/>
<path d="M123.689 30.0306H128.724V17.5942C128.724 15.7612 129.069 14.3834 129.76 13.473C130.451 12.5565 131.68 12.0952 133.448 12.0952C134.191 12.0952 135.034 12.1741 135.982 12.332V7.78591C135.549 7.57348 135.169 7.42174 134.847 7.3307C134.525 7.23966 134.162 7.1911 133.752 7.1911C132.857 7.1911 131.973 7.37319 131.1 7.73128C130.228 8.08938 129.432 8.58708 128.718 9.22438V9.06657C128.718 8.61743 128.566 8.22898 128.255 7.91337C127.951 7.59776 127.576 7.43388 127.143 7.43388H123.684V30.0306H123.689Z" fill="#2E00FF"/>
<path d="M126.32 41.4115H124.974V36.1675H126.385C127.075 36.1675 127.585 36.386 127.912 36.8169C128.24 37.2478 128.404 37.9155 128.404 38.8198C128.404 39.6938 128.228 40.3433 127.889 40.7681C127.549 41.1991 127.028 41.4115 126.32 41.4115ZM123.586 34.8504V42.7468H126.355C127.081 42.7468 127.702 42.589 128.223 42.2855C128.744 41.9759 129.142 41.5268 129.417 40.9381C129.692 40.3493 129.832 39.6453 129.832 38.8259C129.832 37.9944 129.698 37.2782 129.429 36.6834C129.159 36.0885 128.773 35.6333 128.258 35.3238C127.748 35.0142 127.134 34.8564 126.426 34.8564H123.586V34.8504ZM116.222 39.2265L116.96 37.09L117.288 36.0461L117.048 36.2221H117.065L116.825 36.0339C116.948 36.477 117.059 36.823 117.141 37.0839L117.85 39.2204H116.222V39.2265ZM116.38 34.8504L113.576 42.7468H115.028L115.795 40.495H118.271L119.026 42.7468H120.537L117.721 34.8504H116.38ZM110.638 36.1796L110.977 34.8504H105.802V42.7468H110.749V41.3751H107.196V39.2993H109.842L110.169 38.0004H107.196V36.1857H110.638V36.1796ZM95.9915 34.8504V42.7468H97.3847V39.5664H100.686V42.7468H102.079V34.8504H100.686V38.2978H97.3847V34.8504H95.9915ZM88.6274 39.2265L89.365 37.09L89.6928 36.0461L89.4528 36.2221H89.4703L89.2303 36.0339C89.3532 36.477 89.4645 36.823 89.5464 37.0839L90.2547 39.2204H88.6274V39.2265ZM88.7854 34.8504L85.9814 42.7468H87.4332L88.2 40.495H90.6762L91.4314 42.7468H92.9416L90.126 34.8504H88.7854Z" fill="#2E00FF"/>
<path d="M5.03429 7.43436H0V30.031H5.03429V7.43436Z" fill="#2E00FF"/>
<path d="M7.84473 30.0313H12.879V16.3629C12.879 14.9851 13.2946 13.8501 14.1259 12.9761C14.9571 12.1021 16.0401 11.659 17.3748 11.659C18.528 11.659 19.406 11.9321 20.009 12.4784C20.6119 13.0246 20.9105 13.8137 20.9105 14.8516V30.0374H25.9447V14.5663C25.9447 12.2053 25.2657 10.3419 23.9076 8.98845C22.5495 7.63495 20.6822 6.95517 18.2938 6.95517C16.1396 6.95517 14.3191 7.56819 12.838 8.78815C12.7854 8.38757 12.6156 8.06588 12.317 7.81097C12.0244 7.55605 11.6848 7.43466 11.2985 7.43466H7.84473V30.0313Z" fill="#2E00FF"/>
<path d="M137.522 7.4343L145.671 28.4347L145.056 30.1099C144.775 30.8564 144.489 31.3541 144.19 31.603C143.897 31.8579 143.493 31.9793 142.978 31.9793C142.697 31.9246 142.176 31.8518 141.421 31.7608C140.666 31.6697 140.11 31.5969 139.747 31.5423V35.0868C139.747 35.3782 139.823 35.6513 139.975 35.9062C140.127 36.1611 140.332 36.3372 140.59 36.4464C141.357 36.7135 142.334 36.847 143.511 36.847C145.074 36.847 146.344 36.4161 147.316 35.5542C148.288 34.6923 149.172 33.1932 149.968 31.0688L159 7.4343H153.62L148.861 20.9085L148.399 22.262L147.901 20.9085L142.984 7.44037H137.522V7.4343Z" fill="#2E00FF"/>
<path d="M26.9814 7.4343L34.5914 30.031H39.4325L47.2766 7.4343H41.9731L37.5535 21.1817C37.4774 21.4184 37.4071 21.6611 37.3427 21.8979C37.2783 22.1346 37.2081 22.3652 37.132 22.5776L36.7105 21.1817L32.3611 7.4343H26.9814Z" fill="#2E00FF"/>
<path d="M57.12 11.4581C58.4489 11.4581 59.5201 11.8526 60.3279 12.6356C61.1358 13.4186 61.6509 14.5657 61.8851 16.0831H52.1209C52.4545 14.596 53.0516 13.455 53.9063 12.6538C54.7668 11.8587 55.8381 11.4581 57.12 11.4581ZM57.3074 30.5891C60.0001 30.5891 62.2012 29.8001 63.9163 28.216C65.6315 26.6379 66.492 25.1812 66.8257 22.3953H62.9797C62.646 22.3953 62.3651 22.4924 62.1368 22.6927C61.9085 22.893 61.727 23.1783 61.5982 23.5485C60.9309 25.5939 59.3621 25.9642 57.0556 25.9642C55.598 25.9642 54.6556 25.4119 53.7307 24.4711C52.8058 23.5303 52.2204 22.2072 51.9628 20.5077H67.1828C67.2823 17.7704 66.9486 15.379 66.1642 13.3336C65.3856 11.2882 64.2149 9.70404 62.6695 8.59333C61.1182 7.47654 59.2684 6.91815 57.1142 6.91815C55.1649 6.91815 53.397 7.42799 51.8106 8.45373C50.2242 9.47947 48.9774 10.8937 48.0817 12.6963C47.1861 14.505 46.7354 16.5201 46.7354 18.7536C46.7354 21.0358 47.1802 23.0872 48.0817 24.8899C48.9774 26.6986 50.2301 28.1006 51.8282 29.096C53.4321 30.0914 55.2585 30.5891 57.3074 30.5891Z" fill="#2E00FF"/>
<path d="M69.5322 30.0313H74.5665V16.3629C74.5665 14.9851 74.9821 13.8501 75.8134 12.9761C76.6446 12.1021 77.7276 11.659 79.0622 11.659C80.2155 11.659 81.0935 11.9321 81.6965 12.4784C82.2994 13.0246 82.598 13.8137 82.598 14.8516V30.0374H87.6322V14.5663C87.6322 12.2053 86.9532 10.3419 85.5951 8.98845C84.237 7.63495 82.3697 6.95517 79.9813 6.95517C77.8271 6.95517 76.0066 7.56819 74.5255 8.78815C74.4728 8.38757 74.3031 8.06588 74.0045 7.81097C73.7119 7.55605 73.3723 7.43466 72.986 7.43466H69.5264V30.0313H69.5322Z" fill="#2E00FF"/>
<path d="M88.5645 7.43429V10.4205C88.5645 10.8696 88.7167 11.2581 89.0269 11.5737C89.3313 11.8893 89.7059 12.0532 90.1391 12.0532H91.4445V25.1632C91.4445 26.7595 91.9128 27.9855 92.8495 28.8474C93.7861 29.7093 95.0973 30.1402 96.7891 30.1402C97.9189 30.1402 99.0662 29.9824 100.249 29.6607V27.0691C100.249 26.5107 100.079 26.0737 99.7511 25.752C99.4174 25.4364 98.9842 25.2725 98.4457 25.2725C98.2642 25.2725 98.1237 25.2846 98.0242 25.315C97.9247 25.3393 97.755 25.3575 97.5267 25.3575C97.0935 25.3575 96.8066 25.2968 96.6778 25.1754C96.5491 25.054 96.4847 24.8112 96.4847 24.441V12.0592H100.331V7.43429H96.4847V0.939941H91.4504V7.43429H88.5645Z" fill="#2E00FF"/>
</svg>
