<svg width="159" height="41" viewBox="0 0 159 41" fill="none" xmlns="http://www.w3.org/2000/svg">
<path d="M115.91 20.5203C115.91 21.2697 115.301 21.8786 114.546 21.8786C114.183 21.8786 113.844 21.7381 113.592 21.4805L111.772 19.6187L110.103 21.4102C109.547 22.0074 108.616 22.0366 108.019 21.4805L106.989 20.5203C106.392 19.9641 106.363 19.0274 106.919 18.4302L108.663 16.5626L106.919 14.8003C106.527 14.408 106.41 13.8167 106.632 13.3015C106.849 12.798 107.364 12.4819 107.908 12.4819H114.552C115.301 12.4819 115.91 13.0908 115.91 13.8401V20.5203ZM121.764 17.1831C121.764 15.0052 121.313 13.0439 120.418 11.2992C119.522 9.55455 118.269 8.19628 116.671 7.22441C115.067 6.25254 113.258 5.7666 111.233 5.7666C109.208 5.7666 107.393 6.25839 105.795 7.24783C104.191 8.23726 102.938 9.59554 102.031 11.3227C101.124 13.0498 100.667 15.0052 100.667 17.1831C100.667 19.3611 101.124 21.3165 102.031 23.0436C102.938 24.7766 104.197 26.1349 105.795 27.1185C107.393 28.1021 109.208 28.5997 111.233 28.5997C113.258 28.5997 115.067 28.1138 116.671 27.1419C118.269 26.17 119.522 24.8117 120.418 23.0671C121.319 21.3224 121.764 19.3611 121.764 17.1831Z" fill="white"/>
<path d="M123.688 28.061H128.723V16.0649C128.723 14.2968 129.068 12.9678 129.759 12.0896C130.45 11.2055 131.679 10.7606 133.447 10.7606C134.19 10.7606 135.033 10.8367 135.981 10.9889V6.60378C135.548 6.39887 135.168 6.25251 134.846 6.16469C134.524 6.07687 134.161 6.03003 133.751 6.03003C132.855 6.03003 131.972 6.20567 131.099 6.55109C130.227 6.89652 129.431 7.3766 128.717 7.99133V7.83911C128.717 7.40587 128.565 7.03117 128.254 6.72673C127.95 6.42229 127.575 6.26421 127.142 6.26421H123.683V28.061H123.688Z" fill="white"/>
<path d="M126.32 39.0391H124.973V33.9807H126.384C127.075 33.9807 127.584 34.1914 127.912 34.6071C128.24 35.0228 128.404 35.6668 128.404 36.5391C128.404 37.3822 128.228 38.0087 127.889 38.4185C127.549 38.8342 127.028 39.0391 126.32 39.0391ZM123.586 32.7102V40.3271H126.355C127.081 40.3271 127.701 40.1749 128.222 39.8821C128.743 39.5836 129.141 39.1503 129.416 38.5824C129.692 38.0145 129.832 37.3354 129.832 36.545C129.832 35.7429 129.697 35.0521 129.428 34.4783C129.159 33.9046 128.773 33.4655 128.257 33.1669C127.748 32.8683 127.133 32.7161 126.425 32.7161H123.586V32.7102ZM116.222 36.9314L116.96 34.8706L117.287 33.8636L117.047 34.0334H117.065L116.825 33.8519C116.948 34.2792 117.059 34.613 117.141 34.8647L117.849 36.9255H116.222V36.9314ZM116.38 32.7102L113.576 40.3271H115.028L115.795 38.155H118.271L119.026 40.3271H120.536L117.721 32.7102H116.38ZM110.638 33.9924L110.977 32.7102H105.802V40.3271H110.749V39.0039H107.196V37.0017H109.841L110.169 35.7488H107.196V33.9982H110.638V33.9924ZM95.9914 32.7102V40.3271H97.3846V37.2593H100.686V40.3271H102.079V32.7102H100.686V36.0356H97.3846V32.7102H95.9914ZM88.6273 36.9314L89.3649 34.8706L89.6927 33.8636L89.4527 34.0334H89.4703L89.2303 33.8519C89.3532 34.2792 89.4644 34.613 89.5464 34.8647L90.2547 36.9255H88.6273V36.9314ZM88.7854 32.7102L85.9814 40.3271H87.4332L88.2 38.155H90.6762L91.4313 40.3271H92.9416L90.1259 32.7102H88.7854Z" fill="white"/>
<path d="M5.03425 6.26453H0V28.0613H5.03425V6.26453Z" fill="white"/>
<path d="M7.84473 28.0617H12.879V14.8771C12.879 13.5481 13.2946 12.4532 14.1258 11.6102C14.9571 10.7671 16.04 10.3397 17.3747 10.3397C18.5279 10.3397 19.4059 10.6032 20.0089 11.1301C20.6118 11.657 20.9104 12.4181 20.9104 13.4193V28.0676H25.9446V13.1441C25.9446 10.8666 25.2656 9.06926 23.9075 7.76367C22.5494 6.45809 20.6821 5.80237 18.2937 5.80237C16.1395 5.80237 14.319 6.39369 12.838 7.57047C12.7853 7.18406 12.6156 6.87377 12.317 6.62787C12.0243 6.38198 11.6848 6.26488 11.2985 6.26488H7.84473V28.0617Z" fill="white"/>
<path d="M137.522 6.26453L145.671 26.5216L145.056 28.1375C144.775 28.8576 144.488 29.3377 144.19 29.5777C143.897 29.8236 143.493 29.9407 142.978 29.9407C142.697 29.888 142.176 29.8177 141.421 29.7299C140.666 29.6421 140.11 29.5718 139.747 29.5191V32.9383C139.747 33.2193 139.823 33.4827 139.975 33.7286C140.127 33.9745 140.332 34.1443 140.59 34.2497C141.357 34.5073 142.334 34.6361 143.511 34.6361C145.074 34.6361 146.344 34.2204 147.316 33.3891C148.288 32.5577 149.171 31.1116 149.968 29.0625L159 6.26453H153.62L148.861 19.2618L148.399 20.5674L147.901 19.2618L142.984 6.27038H137.522V6.26453Z" fill="white"/>
<path d="M26.9854 6.26453L34.5953 28.0613H39.4363L47.2804 6.26453H41.9769L37.5573 19.5253C37.4812 19.7536 37.4109 19.9878 37.3465 20.2161C37.2821 20.4445 37.2119 20.6669 37.1358 20.8718L36.7143 19.5253L32.365 6.26453H26.9854Z" fill="white"/>
<path d="M57.1209 10.1459C58.4497 10.1459 59.521 10.5264 60.3288 11.2817C61.1366 12.0369 61.6518 13.1434 61.8859 14.6071H52.1218C52.4555 13.1727 53.0526 12.072 53.9072 11.2992C54.7677 10.5323 55.839 10.1459 57.1209 10.1459ZM57.3083 28.5997C60.001 28.5997 62.202 27.8386 63.9172 26.3105C65.6323 24.7883 66.4928 23.3832 66.8265 20.6959H62.9806C62.6469 20.6959 62.3659 20.7896 62.1376 20.9828C61.9093 21.176 61.7279 21.4512 61.5991 21.8083C60.9317 23.7813 59.3629 24.1385 57.0565 24.1385C55.599 24.1385 54.6565 23.6057 53.7316 22.6982C52.8067 21.7908 52.2213 20.5144 51.9638 18.8751H67.1836C67.2831 16.2347 66.9494 13.928 66.165 11.955C65.3865 9.98194 64.2157 8.45388 62.6703 7.38248C61.1191 6.30523 59.2693 5.7666 57.1151 5.7666C55.1658 5.7666 53.3979 6.25839 51.8116 7.24783C50.2252 8.23726 48.9783 9.60139 48.0827 11.3402C47.1871 13.0849 46.7363 15.0286 46.7363 17.1831C46.7363 19.3845 47.1812 21.3634 48.0827 23.1022C48.9783 24.8469 50.231 26.1993 51.8291 27.1595C53.4331 28.1196 55.2594 28.5997 57.3083 28.5997Z" fill="white"/>
<path d="M69.5322 28.0617H74.5665V14.8771C74.5665 13.5481 74.9821 12.4532 75.8133 11.6102C76.6446 10.7671 77.7275 10.3397 79.0622 10.3397C80.2154 10.3397 81.0934 10.6032 81.6964 11.1301C82.2993 11.657 82.5979 12.4181 82.5979 13.4193V28.0676H87.6321V13.1441C87.6321 10.8666 86.9531 9.06926 85.595 7.76367C84.2369 6.45809 82.3696 5.80237 79.9812 5.80237C77.827 5.80237 76.0065 6.39369 74.5255 7.57047C74.4728 7.18406 74.3031 6.87377 74.0045 6.62787C73.7118 6.38198 73.3723 6.26488 72.986 6.26488H69.5264V28.0617H69.5322Z" fill="white"/>
<path d="M88.5615 6.26446V9.14495C88.5615 9.57819 88.7137 9.95289 89.024 10.2573C89.3284 10.5618 89.703 10.7198 90.1362 10.7198H91.4416V23.3659C91.4416 24.9056 91.9099 26.0883 92.8465 26.9196C93.7831 27.751 95.0943 28.1667 96.7861 28.1667C97.9159 28.1667 99.0632 28.0144 100.246 27.7042V25.2042C100.246 24.6656 100.076 24.2441 99.7481 23.9338C99.4144 23.6293 98.9812 23.4712 98.4427 23.4712C98.2612 23.4712 98.1207 23.483 98.0212 23.5122C97.9217 23.5356 97.752 23.5532 97.5237 23.5532C97.0905 23.5532 96.8036 23.4947 96.6749 23.3776C96.5461 23.2605 96.4817 23.0263 96.4817 22.6692V10.7257H100.328V6.26446H96.4817V0H91.4474V6.26446H88.5615Z" fill="white"/>
</svg>
