<svg width="81" height="23" viewBox="0 0 81 23" fill="none" xmlns="http://www.w3.org/2000/svg">
<path d="M59.0487 11.8532C59.0487 12.2507 58.7385 12.5737 58.3538 12.5737C58.1689 12.5737 57.996 12.4991 57.8678 12.3625L56.9403 11.375L56.0904 12.3252C55.8071 12.642 55.3329 12.6575 55.0288 12.3625L54.5039 11.8532C54.1997 11.5582 54.1848 11.0614 54.4681 10.7446L55.3568 9.75403L54.4681 8.81933C54.2683 8.61128 54.2087 8.29764 54.322 8.02437C54.4323 7.75732 54.6948 7.58963 54.9721 7.58963H58.3568C58.7385 7.58963 59.0487 7.91258 59.0487 8.31006V11.8532ZM62.0308 10.0832C62.0308 8.92802 61.8012 7.88774 61.3449 6.96235C60.8887 6.03697 60.2505 5.31654 59.4364 4.80106C58.6192 4.28557 57.6978 4.02783 56.666 4.02783C55.6341 4.02783 54.7097 4.28868 53.8955 4.81348C53.0784 5.33828 52.4403 6.05871 51.978 6.97478C51.5158 7.89084 51.2832 8.92802 51.2832 10.0832C51.2832 11.2384 51.5158 12.2755 51.978 13.1916C52.4403 14.1108 53.0814 14.8312 53.8955 15.3529C54.7097 15.8746 55.6341 16.1386 56.666 16.1386C57.6978 16.1386 58.6192 15.8808 59.4364 15.3653C60.2505 14.8499 60.8887 14.1294 61.3449 13.204C61.8042 12.2787 62.0308 11.2384 62.0308 10.0832Z" fill="#2E00FF"/>
<path d="M63.0118 15.8528H65.5764V9.48999C65.5764 8.55219 65.7524 7.84728 66.1042 7.38148C66.4561 6.91258 67.0824 6.67658 67.983 6.67658C68.3617 6.67658 68.7911 6.71694 69.2743 6.79768V4.4718C69.0536 4.36312 68.8597 4.28548 68.6957 4.2389C68.5317 4.19232 68.3468 4.16748 68.1381 4.16748C67.6818 4.16748 67.2315 4.26064 66.7872 4.44385C66.3428 4.62707 65.9372 4.8817 65.5734 5.20776V5.12702C65.5734 4.89723 65.4959 4.69849 65.3378 4.53701C65.1828 4.37554 64.9919 4.29169 64.7712 4.29169H63.0088V15.8528H63.0118Z" fill="#2E00FF"/>
<path d="M64.3517 21.6756H63.6658V18.9926H64.3845C64.7363 18.9926 64.9958 19.1044 65.1628 19.3248C65.3298 19.5453 65.4133 19.8869 65.4133 20.3496C65.4133 20.7968 65.3238 21.129 65.1509 21.3464C64.9779 21.5669 64.7125 21.6756 64.3517 21.6756ZM62.959 18.3187V22.3587H64.3695C64.7393 22.3587 65.0554 22.278 65.3208 22.1227C65.5863 21.9644 65.789 21.7346 65.9292 21.4334C66.0694 21.1321 66.1409 20.7719 66.1409 20.3527C66.1409 19.9273 66.0723 19.5609 65.9352 19.2565C65.798 18.9522 65.6012 18.7193 65.3387 18.5609C65.0793 18.4026 64.7662 18.3218 64.4053 18.3218H62.959V18.3187ZM59.2075 20.5577L59.5832 19.4646L59.7502 18.9305L59.6279 19.0205H59.6369L59.5146 18.9243C59.5773 19.151 59.6339 19.328 59.6757 19.4615L60.0365 20.5546H59.2075V20.5577ZM59.288 18.3187L57.8595 22.3587H58.5991L58.9898 21.2067H60.2512L60.6359 22.3587H61.4053L59.9709 18.3187H59.288ZM56.3625 18.9988L56.5355 18.3187H53.8993V22.3587H56.4192V21.6569H54.609V20.5949H55.9569L56.1239 19.9304H54.609V19.0019H56.3625V18.9988ZM48.9012 18.3187V22.3587H49.611V20.7316H51.2929V22.3587H52.0026V18.3187H51.2929V20.0825H49.611V18.3187H48.9012ZM45.1497 20.5577L45.5254 19.4646L45.6924 18.9305L45.5702 19.0205H45.5791L45.4568 18.9243C45.5195 19.151 45.5761 19.328 45.6179 19.4615L45.9787 20.5546H45.1497V20.5577ZM45.2302 18.3187L43.8018 22.3587H44.5413L44.932 21.2067H46.1934L46.5781 22.3587H47.3475L45.9131 18.3187H45.2302Z" fill="#2E00FF"/>
<path d="M2.56464 4.29199H0V15.8531H2.56464V4.29199Z" fill="#2E00FF"/>
<path d="M3.99609 15.8532H6.56073V8.85999C6.56073 8.15508 6.77246 7.57439 7.19593 7.12723C7.61939 6.68006 8.17108 6.45337 8.85101 6.45337C9.43849 6.45337 9.88581 6.59311 10.193 6.87259C10.5001 7.15207 10.6522 7.55576 10.6522 8.08677V15.8563H13.2169V7.94082C13.2169 6.73285 12.8709 5.77952 12.1791 5.08703C11.4872 4.39455 10.5359 4.04675 9.31921 4.04675C8.22178 4.04675 7.29434 4.36039 6.53986 4.98456C6.51302 4.77961 6.42654 4.61503 6.27445 4.4846C6.12534 4.35418 5.95238 4.29207 5.75555 4.29207H3.99609V15.8532Z" fill="#2E00FF"/>
<path d="M70.0586 4.29199L74.2097 15.0364L73.8966 15.8934C73.7535 16.2754 73.6073 16.53 73.4553 16.6574C73.3061 16.7878 73.1004 16.8499 72.8379 16.8499C72.6948 16.8219 72.4294 16.7847 72.0447 16.7381C71.66 16.6915 71.3767 16.6542 71.1918 16.6263V18.4398C71.1918 18.5889 71.2306 18.7286 71.3081 18.859C71.3856 18.9894 71.49 19.0795 71.6212 19.1354C72.0119 19.272 72.5099 19.3403 73.1093 19.3403C73.9056 19.3403 74.5527 19.1199 75.0477 18.6789C75.5427 18.238 75.993 17.4709 76.3986 16.3841L81.0001 4.29199H78.2595L75.835 11.1858L75.5994 11.8783L75.3459 11.1858L72.8409 4.2951H70.0586V4.29199Z" fill="#2E00FF"/>
<path d="M13.7451 4.29199L17.6219 15.8531H20.0881L24.0842 4.29199H21.3824L19.1309 11.3255C19.0921 11.4466 19.0563 11.5708 19.0235 11.692C18.9907 11.8131 18.9549 11.9311 18.9161 12.0398L18.7014 11.3255L16.4857 4.29199H13.7451Z" fill="#2E00FF"/>
<path d="M29.0989 6.35061C29.7759 6.35061 30.3216 6.55245 30.7331 6.95304C31.1447 7.35363 31.4071 7.94053 31.5264 8.71686H26.5522C26.7221 7.95606 27.0263 7.37226 27.4617 6.96235C27.9001 6.55556 28.4458 6.35061 29.0989 6.35061ZM29.1943 16.1386C30.5661 16.1386 31.6874 15.7349 32.5612 14.9244C33.4349 14.117 33.8733 13.3717 34.0433 11.9464H32.084C31.914 11.9464 31.7709 11.9961 31.6546 12.0985C31.5383 12.201 31.4458 12.347 31.3802 12.5364C31.0403 13.5829 30.2411 13.7723 29.0661 13.7723C28.3236 13.7723 27.8434 13.4897 27.3722 13.0084C26.9011 12.5271 26.6029 11.8501 26.4716 10.9806H34.2252C34.2759 9.58014 34.1059 8.35664 33.7063 7.31015C33.3097 6.26366 32.7133 5.45317 31.926 4.8849C31.1357 4.31352 30.1933 4.02783 29.0959 4.02783C28.1029 4.02783 27.2023 4.28868 26.3941 4.81348C25.5859 5.33828 24.9508 6.06181 24.4945 6.98409C24.0382 7.90948 23.8086 8.94044 23.8086 10.0832C23.8086 11.2508 24.0352 12.3004 24.4945 13.2227C24.9508 14.1481 25.5889 14.8654 26.4031 15.3747C27.2202 15.8839 28.1506 16.1386 29.1943 16.1386Z" fill="#2E00FF"/>
<path d="M35.4219 15.8532H37.9866V8.85999C37.9866 8.15508 38.1983 7.57439 38.6218 7.12723C39.0452 6.68006 39.5969 6.45337 40.2768 6.45337C40.8643 6.45337 41.3116 6.59311 41.6188 6.87259C41.926 7.15207 42.0781 7.55576 42.0781 8.08677V15.8563H44.6427V7.94082C44.6427 6.73285 44.2968 5.77952 43.6049 5.08703C42.9131 4.39455 41.9618 4.04675 40.745 4.04675C39.6476 4.04675 38.7202 4.36039 37.9657 4.98456C37.9389 4.77961 37.8524 4.61503 37.7003 4.4846C37.5512 4.35418 37.3782 4.29207 37.1814 4.29207H35.4189V15.8532H35.4219Z" fill="#2E00FF"/>
<path d="M45.1182 4.29193V5.81974C45.1182 6.04953 45.1957 6.24828 45.3538 6.40975C45.5088 6.57123 45.6997 6.65507 45.9204 6.65507H46.5854V13.3626C46.5854 14.1793 46.8239 14.8065 47.3011 15.2475C47.7782 15.6884 48.4462 15.9089 49.3081 15.9089C49.8836 15.9089 50.4681 15.8282 51.0705 15.6636V14.3376C51.0705 14.0519 50.984 13.8284 50.817 13.6638C50.647 13.5023 50.4264 13.4184 50.152 13.4184C50.0596 13.4184 49.988 13.4247 49.9373 13.4402C49.8866 13.4526 49.8001 13.4619 49.6838 13.4619C49.4631 13.4619 49.317 13.4309 49.2514 13.3688C49.1858 13.3067 49.153 13.1824 49.153 12.993V6.65818H51.1123V4.29193H49.153V0.969238H46.5884V4.29193H45.1182Z" fill="#2E00FF"/>
</svg>
