<svg width="17" height="18" viewBox="0 0 17 18" fill="none" xmlns="http://www.w3.org/2000/svg">
<path d="M4.25 7.58329V6.16663C4.25 3.82204 4.95833 1.91663 8.5 1.91663C12.0417 1.91663 12.75 3.82204 12.75 6.16663V7.58329" stroke="#BAB8CF" stroke-width="1.5" stroke-linecap="round" stroke-linejoin="round"/>
<path d="M8.50033 13.6042C9.47833 13.6042 10.2712 12.8113 10.2712 11.8333C10.2712 10.8553 9.47833 10.0625 8.50033 10.0625C7.52232 10.0625 6.72949 10.8553 6.72949 11.8333C6.72949 12.8113 7.52232 13.6042 8.50033 13.6042Z" stroke="#BAB8CF" stroke-width="1.5" stroke-linecap="round" stroke-linejoin="round"/>
<path d="M12.042 16.0834H4.95866C2.12533 16.0834 1.41699 15.375 1.41699 12.5417V11.125C1.41699 8.29171 2.12533 7.58337 4.95866 7.58337H12.042C14.8753 7.58337 15.5837 8.29171 15.5837 11.125V12.5417C15.5837 15.375 14.8753 16.0834 12.042 16.0834Z" stroke="#BAB8CF" stroke-width="1.5" stroke-linecap="round" stroke-linejoin="round"/>
</svg>
